# xmcd
#
# Track frame offsets:
#	150
#	16360
#	33401
#	54906
#	67980
#	83989
#	98135
#	115976
#	131902
#	155220
#	168743
#	187850
#	204807
#	217919
#	235214
#	249117
#	266664
#	287960
#	299192
#	321582
#
# Disc length: 4460 seconds
#
# Revision: 1
# Processed by: cddbd v1.5.2PL0 Copyright (c) Steve Scherf et al.
# Submitted via: audiograbber 1.83.01
#
DISCID=2d116a14
DTITLE=Eddy Wilsons and Friends - Blues For Christmas
DYEAR=2003
DGENRE=Blues
TTITLE0=Eddy Wilsons and Friends - Lonely This Christmas
TTITLE1=Eddy Wilsons and Friends - Driving Home For Christmas
TTITLE2=Eddy Wilsons and Friends - Still Got The Blues For Christmas
TTITLE3=Eddy Wilsons and Friends - Please Come Home For Christmas
TTITLE4=Eddy Wilsons and Friends - Santa Claus Got The Blues
TTITLE5=Eddy Wilsons and Friends - How Blue Can You Get At Christmas
TTITLE6=Eddy Wilsons and Friends - Thank God It's Christmas
TTITLE7=Eddy Wilsons and Friends - Merry X mass Everybody
TTITLE8=Eddy Wilsons and Friends - Wind Of Change
TTITLE9=Eddy Wilsons and Friends - Do They Know It's Christmas
TTITLE10=Eddy Wilsons and Friends - Angel girl
TTITLE11=Eddy Wilsons and Friends - I'd Rather Go Blind
TTITLE12=Eddy Wilsons and Friends - Magic Christmas  ( The Supernatural )
TTITLE13=Eddy Wilsons and Friends - Christmas Crossroads
TTITLE14=Eddy Wilsons and Friends - I'm Dreaming Of A White Christmas
TTITLE15=Eddy Wilsons and Friends - I Need Your Love So Bad
TTITLE16=Eddy Wilsons and Friends - Now That The Music Was Gone
TTITLE17=Eddy Wilsons and Friends - Miss Calle's Blues
TTITLE18=Eddy Wilsons and Friends - Did You Ever Had The Feeling For Christmas
TTITLE19=Eddy Wilsons and Friends - I've Got The Blues For You At Christmas
EXTD=Blues for Christmas
EXTT0=
EXTT1=
EXTT2=
EXTT3=
EXTT4=
EXTT5=
EXTT6=
EXTT7=
EXTT8=
EXTT9=
EXTT10=
EXTT11=
EXTT12=
EXTT13=
EXTT14=
EXTT15=
EXTT16=
EXTT17=
EXTT18=
EXTT19=
PLAYORDER=
